HIERARCHY
ROOT Hips
{
    OFFSET 0.000000 0.000000 0.000000
    CHANNELS 6 Xposition Yposition Zposition Zrotation Xrotation Yrotation
    JOINT Spine
    {
        OFFSET -0.000000 7.897928 0.000000
        CHANNELS 3 Zrotation Xrotation Yrotation
        JOINT Spine1
        {
            OFFSET -0.000000 22.881742 0.000000
            CHANNELS 3 Zrotation Xrotation Yrotation
            JOINT Neck
            {
                OFFSET -0.000000 22.787771 2.071616
                CHANNELS 3 Zrotation Xrotation Yrotation
                JOINT Head
                {
                    OFFSET -0.000000 13.484266 -1.926324
                    CHANNELS 3 Zrotation Xrotation Yrotation
                    End Site
                    {
                        OFFSET -0.000000 24.079046 0.000000
                    }
                }
            }
            JOINT LeftShoulder
            {
                OFFSET 3.854963 21.096247 -0.110468
                CHANNELS 3 Zrotation Xrotation Yrotation
                JOINT LeftArm
                {
                    OFFSET 10.572188 0.000000 0.000000
                    CHANNELS 3 Zrotation Xrotation Yrotation
                    JOINT LeftForeArm
                    {
                        OFFSET 34.932854 0.000000 0.000000
                        CHANNELS 3 Zrotation Xrotation Yrotation
                        JOINT LeftHand
                        {
                            OFFSET 23.279285 0.000000 0.000000
                            CHANNELS 3 Zrotation Xrotation Yrotation
                            End Site
                            {
                                OFFSET 14.447429 0.000000 0.000000
                            }
                        }
                    }
                }
            }
            JOINT RightShoulder
            {
                OFFSET -3.825334 21.096247 -0.110468
                CHANNELS 3 Zrotation Xrotation Yrotation
                JOINT RightArm
                {
                    OFFSET -10.572188 0.000000 0.000000
                    CHANNELS 3 Zrotation Xrotation Yrotation
                    JOINT RightForeArm
                    {
                        OFFSET -34.932854 0.000000 0.000000
                        CHANNELS 3 Zrotation Xrotation Yrotation
                        JOINT RightHand
                        {
                            OFFSET -23.279285 0.000000 0.000000
                            CHANNELS 3 Zrotation Xrotation Yrotation
                            End Site
                            {
                                OFFSET -14.447429 0.000000 0.000000
                            }
                        }
                    }
                }
            }
        }
    }
    JOINT LeftUpLeg
    {
        OFFSET 9.631618 0.000000 0.000000
        CHANNELS 3 Zrotation Xrotation Yrotation
        JOINT LeftLeg
        {
            OFFSET -0.000000 -35.385456 0.000000
            CHANNELS 3 Zrotation Xrotation Yrotation
            JOINT LeftFoot
            {
                OFFSET -0.000000 -43.284000 0.000000
                CHANNELS 3 Zrotation Xrotation Yrotation
                JOINT LeftToeBase
                {
                    OFFSET -0.000000 -6.260552 14.447429
                    CHANNELS 3 Zrotation Xrotation Yrotation
                    End Site
                    {
                        OFFSET -0.000000 0.000000 3.852648
                    }
                }
            }
        }
    }
    JOINT RightUpLeg
    {
        OFFSET -9.631618 0.000000 0.000000
        CHANNELS 3 Zrotation Xrotation Yrotation
        JOINT RightLeg
        {
            OFFSET -0.000000 -35.385456 0.000000
            CHANNELS 3 Zrotation Xrotation Yrotation
            JOINT RightFoot
            {
                OFFSET -0.000000 -43.284000 0.000000
                CHANNELS 3 Zrotation Xrotation Yrotation
                JOINT RightToeBase
                {
                    OFFSET -0.000000 -6.260552 14.447429
                    CHANNELS 3 Zrotation Xrotation Yrotation
                    End Site
                    {
                        OFFSET -0.000000 0.000000 3.852648
                    }
                }
            }
        }
    }
}
MOTION
Frames:    4
Frame Time:    0.008333
57.063805    87.535706    19.323454    0.299503    0.193637    86.858681    0.937553    -2.005724    -1.562878    -2.804856    -3.330973    -1.660889    -0.991068    15.431394    -7.942477    6.693120    5.980397    -7.658083    17.198046    -0.087913    5.302680    -17.595253    3.519293    -8.179759    2.544409    -2.772161    -0.833669    -1.921138    -2.768521    0.886630    -12.767091    -0.283749    11.277971    15.387640    -0.185560    1.900638    -1.635283    0.949697    0.198348    -1.095673    0.906768    4.787568    7.283945    6.151405    1.189261    -3.962631    3.864762    2.805019    -5.522021    -9.366052    13.441630    0.000000    0.000000    0.000000    -8.646617    0.509002    -1.318807    4.013659    9.243874    -1.343864    4.803144    -9.248965    -10.381029    0.000000    0.000000    0.000000    
57.049988    87.535072    19.315645    0.307722    0.186165    86.882912    0.940518    -1.976223    -1.576984    -2.793914    -3.322894    -1.674277    -0.972398    15.397048    -7.999871    6.747403    5.986979    -7.713288    17.203331    -0.088247    5.316988    -17.616533    3.528266    -8.203568    2.524237    -2.783981    -0.806424    -1.799565    -2.775125    0.565777    -12.752700    -0.307867    11.258774    15.387667    -0.182838    1.904061    -1.606760    0.985672    0.192748    -1.103786    0.942771    4.737882    7.291100    6.155995    1.183622    -3.962973    3.841224    2.765640    -5.525621    -9.354298    13.452776    0.000000    0.000000    0.000000    -8.658213    0.467002    -1.337786    4.039228    9.317965    -1.406889    4.793214    -9.236958    -10.325923    0.000000    0.000000    0.000000    
57.041828    87.534920    19.313244    0.312826    0.180263    86.885513    0.930853    -1.958706    -1.574772    -2.761012    -3.321405    -1.670777    -0.985770    15.377752    -8.024865    6.786168    6.002705    -7.736516    17.165756    -0.056252    5.291797    -17.596693    3.502074    -8.205066    2.536916    -2.780180    -0.829296    -1.864792    -2.771291    0.580411    -12.761211    -0.316425    11.238954    15.389119    -0.166727    1.904677    -1.607364    0.969765    0.195405    -1.066518    0.928455    4.726643    7.296392    6.158977    1.181617    -3.965683    3.840915    2.760499    -5.509951    -9.355493    13.463511    0.000000    0.000000    0.000000    -8.661268    0.437946    -1.331263    4.054257    9.368526    -1.385231    4.787144    -9.249680    -10.366892    0.000000    0.000000    0.000000    
57.034630    87.533211    19.309761    0.325464    0.180379    86.894539    0.935715    -1.947084    -1.586800    -2.755376    -3.296237    -1.682039    -0.993523    15.366926    -8.038034    6.800943    5.984524    -7.747673    17.148752    -0.072430    5.309059    -17.590324    3.502326    -8.206857    2.531333    -2.791327    -0.825983    -1.931218    -2.783089    0.593546    -12.794762    -0.317138    11.243155    15.420995    -0.212844    1.918039    -1.605574    0.959046    0.184275    -1.046918    0.918323    4.739226    7.292066    6.162343    1.186720    -3.958320    3.844771    2.767188    -5.503586    -9.353033    13.437263    0.000000    0.000000    0.000000    -8.662237    0.418653    -1.375237    4.042778    9.421593    -1.400190    4.805859    -9.254583    -10.310374    0.000000    0.000000    0.000000    
